<svg width="60" height="26" viewBox="0 0 60 26" fill="none" xmlns="http://www.w3.org/2000/svg">
<g clip-path="url(#clip0_36_190)">
<path d="M57.2154 25.9755C58.8603 25.9755 60 25.0903 60 23.6906C60 22.1525 58.6777 21.7444 57.273 21.2894C56.148 20.9358 55.5831 20.6638 55.5831 19.9244C55.5831 19.1851 56.1805 18.7399 57.0454 18.7399C57.862 18.7135 58.6015 19.214 58.8727 19.9763L59.7701 19.4645C59.3041 18.3915 58.2256 17.7062 57.0454 17.7334C55.6981 17.7334 54.5133 18.552 54.5133 19.9863C54.5133 21.47 55.7631 21.8631 57.0454 22.2737C58.2278 22.6372 58.9427 22.9116 58.9427 23.7301C58.9427 24.4473 58.3778 24.9666 57.2404 24.9666C56.0655 24.9666 55.3756 24.3978 55.0882 23.5199L54.1683 24.0442C54.5932 25.2385 55.6881 26.0002 57.2154 26.0002" fill="white"/>
<path d="M49.9437 24.8278V17.8643H48.8738V25.8294H53.4158V24.8278H49.9437Z" fill="white"/>
<path d="M44.5793 17.8643H43.372L40.3723 25.8294H41.5023L42.1597 24.0415H45.7817L46.4367 25.8294H47.5764L44.5793 17.8643ZM42.5321 23.0573L43.9694 19.1329L45.4192 23.0573H42.5321Z" fill="white"/>
<path d="M38.0077 17.8643V23.8041L33.8657 17.8643H33.0033V25.8294H34.0732V19.8772L38.2153 25.8294H39.0776V17.8643H38.0077Z" fill="white"/>
<path d="M30.9412 17.8643H29.8712V25.8294H30.9412V17.8643Z" fill="white"/>
<path d="M28.2339 21.8902H24.2093V22.8472H27.164C26.9565 24.0416 25.9666 24.9516 24.2994 24.9516C22.3795 24.9516 21.1022 23.5866 21.1022 21.8556C21.0489 20.1874 22.3725 18.7925 24.0587 18.7397C24.1238 18.7376 24.1891 18.7376 24.2543 18.7398C25.3144 18.7134 26.3039 19.264 26.8314 20.1741L27.7538 19.6399C27.0196 18.4325 25.6935 17.7003 24.2693 17.7161C21.9638 17.7222 20.0998 19.576 20.106 21.8569C20.1123 24.1376 21.9863 25.9815 24.2917 25.9754C26.7189 25.9754 28.2362 24.383 28.2362 22.3577L28.2339 21.8902Z" fill="white"/>
<path d="M18.4076 17.8643H17.3376V25.8294H18.4076V17.8643Z" fill="white"/>
<path d="M14.033 22.6319C15.328 22.1828 16.0098 20.7801 15.5559 19.4991C15.2045 18.5077 14.2551 17.8468 13.1931 17.8543H9.97107V25.8194H11.0409V22.7803H12.9406L14.7555 25.8293H15.9303L14.033 22.6319ZM11.0334 21.8133V18.846H13.1856C14.014 18.846 14.6854 19.5102 14.6854 20.3296C14.6854 21.1492 14.014 21.8133 13.1856 21.8133H11.0334Z" fill="white"/>
<path d="M4.17174 17.7161C1.86618 17.7175 -0.00161895 19.5677 1.05301e-06 21.8484C0.00144105 24.127 1.8684 25.9739 4.17174 25.9753C6.47724 25.9739 8.34498 24.1238 8.34354 21.843C8.3421 19.5644 6.47514 17.7175 4.17174 17.7161ZM4.17174 24.9418C2.44056 24.9418 1.0371 23.5534 1.0371 21.8408C1.0371 20.1282 2.44056 18.7398 4.17174 18.7398C5.90298 18.7398 7.30638 20.1283 7.30638 21.8408C7.30638 23.5534 5.90298 24.9418 4.17174 24.9418Z" fill="white"/>
<path d="M40.1124 0.252518H39.1701C38.6542 0.252518 38.1777 0.525021 37.9202 0.967164L37.5727 1.56808C36.2778 0.540216 34.6636 -0.0136343 33.0033 0.000255015C28.6113 0.000255015 25.6892 3.06914 25.6892 7.92826C25.6892 12.8271 28.6614 15.8588 32.9683 15.8588C34.6156 15.8588 36.2504 15.3197 37.2953 14.4815C37.3624 15.2138 37.9945 15.7677 38.7376 15.745H40.105C40.2375 15.745 40.3549 15.6882 40.3549 15.5571V0.489942C40.3497 0.360012 40.2437 0.256317 40.1124 0.252518ZM32.9408 12.9063C30.4411 12.9063 28.6139 11.0688 28.6139 7.92832C28.6139 4.78779 30.4436 2.95042 32.9408 2.95042C35.4381 2.95042 37.2678 4.78779 37.2678 7.92832C37.2678 11.0688 35.4381 12.9063 32.9408 12.9063Z" fill="white"/>
<path d="M19.03 0.000244141C17.2477 0.000244141 15.6504 0.601164 14.558 1.76347C13.4607 0.60615 11.8609 0.0102159 10.0786 0.0126495C6.829 0.0126495 4.19422 2.00582 4.11682 5.75712V14.3256C4.11958 15.1075 4.75882 15.7409 5.5492 15.745H6.889C7.01596 15.7414 7.11592 15.6366 7.11232 15.5111C7.11214 15.5067 7.11196 15.5022 7.11154 15.4977V5.77938C7.1665 3.92961 8.4763 2.95036 10.0837 2.94792C11.691 2.94543 13.0058 3.92225 13.0533 5.7719V14.2687C13.0525 15.0637 13.6853 15.718 14.4882 15.7524H15.8255C15.9537 15.7396 16.0512 15.6326 16.0505 15.5052V5.81648C16.103 3.9692 17.4128 2.95041 19.0227 2.94792C20.6325 2.94543 21.9424 3.90985 22.0049 5.75706V14.3008C22.0074 15.0878 22.6443 15.7289 23.4396 15.745H24.7795C24.9128 15.7295 25.0098 15.6126 24.9995 15.4804V5.72246C24.9043 1.97858 22.2696 0.000244141 19.03 0.000244141Z" fill="white"/>
<path d="M41.0523 0.4356L45.7717 7.32992C46.042 7.7349 46.042 8.26032 45.7717 8.66531L41.0523 15.5572C41.015 15.6129 41.0305 15.6881 41.087 15.725C41.1071 15.7382 41.1307 15.7452 41.1547 15.7451H43.547C44.1069 15.7451 44.6543 15.6783 45.1393 15.0033L47.5865 11.43C47.779 11.1505 48.0564 10.8217 48.4514 10.8217C48.8463 10.8217 49.1238 11.1505 49.3137 11.43L51.7635 15.0033C52.2459 15.6759 52.7933 15.7451 53.3533 15.7451H55.7455C55.8117 15.7464 55.8666 15.6944 55.868 15.629C55.868 15.629 55.868 15.629 55.868 15.6288C55.8683 15.6066 55.8613 15.585 55.8479 15.567L51.1285 8.67516C50.8647 8.26833 50.8647 7.74666 51.1285 7.33983L55.8479 0.445453C55.8613 0.427528 55.8683 0.405863 55.868 0.383605C55.868 0.318076 55.8142 0.264893 55.7481 0.264893C55.7471 0.264893 55.7464 0.264892 55.7455 0.264951H53.3533C52.7933 0.264951 52.2459 0.326801 51.7635 1.00684L49.3137 4.58013C49.1238 4.85958 48.8438 5.19096 48.4514 5.19096C48.0589 5.19096 47.779 4.85958 47.5865 4.58013L45.1393 1.00684C44.6543 0.33422 44.1069 0.264951 43.547 0.264951H41.1547C41.0885 0.264002 41.0341 0.316472 41.0332 0.382001C41.0328 0.405388 41.0395 0.4283 41.0523 0.447946" fill="white"/>
</g>
<defs>
<clipPath id="clip0_36_190">
<rect width="60" height="26" fill="white"/>
</clipPath>
</defs>
</svg>
